<?xml version="1.0" encoding="UTF-8" standalone="no"?><!DOCTYPE svg PUBLIC "-//W3C//DTD SVG 1.1//EN" "http://www.w3.org/Graphics/SVG/1.1/DTD/svg11.dtd"><svg width="100%" height="100%" viewBox="0 0 344 74" version="1.1" xmlns="http://www.w3.org/2000/svg" xmlns:xlink="http://www.w3.org/1999/xlink" xml:space="preserve" style="fill-rule:evenodd;clip-rule:evenodd;stroke-linejoin:round;stroke-miterlimit:1.41421;"><g transform="matrix(1.01134,-0.0176529,0.0176529,1.01134,-703.865,10.1183)"><path d="M751.302,5.178c-3.72,-3.12 -7.36,0.56 -9,5.08c-0.72,2.04 2.12,3.96 3.32,2.16c1.88,-2.8 3,-7.16 4.96,-6c-2.6,6.68 -6.76,20.52 -6.76,22.64c0,2.52 3.52,3.56 3.8,1.8c0.48,-3 4.36,-16.8 6.76,-22.6c0.56,-1.44 -1.76,-4 -3.08,-3.08Z" style="fill:#3c0336;fill-rule:nonzero;"/><path d="M769.022,23.098c-0.16,-0.4 -0.68,-0.44 -0.88,-0.08c-0.88,1.4 -2.72,4.16 -3.76,4.16c-1.6,0 0.4,-5.52 1.56,-8.96c0.72,-2.2 0.28,-5.28 -2.16,-5.28c-1.76,0 -3.6,1.88 -5.04,4.28c0.2,-0.6 0.36,-1.12 0.52,-1.52c0.64,-1.64 -2.76,-3.08 -3.84,-0.88c-1.2,2.44 -3.88,12.04 -3.88,14.24c0,2.56 3.32,3.56 3.6,1.8c0.24,-1.4 0.92,-4.2 1.68,-7.04c1.04,-2.96 3.48,-6.52 4.48,-6.52c0.52,0 0.12,1.68 -0.12,2.52c-0.92,3 -2.12,6.64 -2.12,9.04c0,1.76 0.6,2.88 2,2.88c3.32,0 7.12,-6.56 7.96,-8.04c0.08,-0.2 0.08,-0.44 0,-0.6Z" style="fill:#3c0336;fill-rule:nonzero;"/><path d="M779.462,23.098c-0.16,-0.4 -0.68,-0.52 -0.88,-0.12c-0.52,0.92 -1.84,2.8 -3.52,4.16c0.16,-0.64 0.28,-1.4 0.28,-2.24c0,-3.16 -0.68,-5.44 -1.04,-7.64c2.4,-3.08 4.28,-6.2 2.6,-7.44c-2.04,-1.44 -5.88,2.12 -5.96,6.36c-0.88,3.08 -2.16,5.6 -3.24,7.52c-0.4,0.64 0.44,1.48 0.88,0.76c0.44,-0.72 1.32,-2.28 2.32,-4.28c0,1.6 0,3.24 0,5.56c0,1.24 -0.6,3.6 -2,3.6c-0.8,0 -1.32,-0.8 -1.68,-1.56c-0.28,-0.48 -1.56,1.08 -1.28,1.56c0.56,1.04 1.52,2.4 3.24,2.4c0.12,0 0.24,0 0.4,0c5.08,0.08 8.68,-6 9.88,-8.04c0.12,-0.16 0.12,-0.44 0,-0.6Z" style="fill:#3c0336;fill-rule:nonzero;"/><path d="M791.982,22.978c-0.88,1.64 -4.24,5.96 -7.6,5.96c-1.56,0 -2.44,-1.4 -2.44,-3.36c0,-4.72 3.24,-9.88 4.72,-9.88c0.44,0 0.76,0.44 0.76,0.96c0,1.12 -0.76,2.2 -1.48,3.2c-0.56,0.76 -0.56,1.96 0.08,2.76c0.8,0.96 1.84,0.8 2.44,0.24c1.44,-1.32 2.4,-3.2 2.4,-5.32c0,-2.8 -2.2,-4.6 -4.28,-4.6c-4.44,0 -9.04,5.88 -9.04,12.72c0,4.12 2.72,6.08 5.68,6.08c4.92,0 8.4,-5.92 9.64,-8c0.08,-0.16 0.12,-0.48 0.04,-0.64c-0.2,-0.4 -0.72,-0.52 -0.92,-0.12Z" style="fill:#3c0336;fill-rule:nonzero;"/><path d="M805.302,23.098c-0.2,-0.4 -0.68,-0.44 -0.92,-0.08c-0.88,1.4 -2.72,4.16 -3.76,4.16c-2.24,0 2.24,-10.52 2.6,-11.48c0.52,-1.36 -1.64,-2.52 -3.08,-1.68c-1.24,0.68 -2.28,1.12 -3.12,1.2c1.16,-2.88 1.56,-4.08 1.56,-5.8c0,-1.24 -0.56,-2.16 -1.32,-2.16c-1.44,0 -3.64,2.76 -3.64,5.76c0,0.88 0.32,2.28 1.16,3.24c-0.88,3.04 -2.12,5.64 -3.24,7.52c-0.36,0.64 0.44,1.4 0.92,0.68c0.64,-1.08 2.28,-3.92 3.76,-7.28c0.28,0.08 0.56,0.12 0.88,0.12c0.52,0 0.92,-0.04 1.2,-0.16c-1.32,3.24 -2.96,8.52 -2.96,11.72c0,1.76 0.6,2.88 2,2.88c3.28,0 7.12,-6.56 7.92,-8.04c0.12,-0.2 0.12,-0.44 0.04,-0.6Z" style="fill:#3c0336;fill-rule:nonzero;"/><path d="M806.982,14.818c-1.2,2.16 -4.04,9.84 -4.04,14.04c0,1.76 0.6,2.88 2,2.88c3.32,0 7.12,-6.56 7.92,-8.04c0.12,-0.2 0.12,-0.44 0.04,-0.6c-0.2,-0.4 -0.68,-0.44 -0.92,-0.08c-0.88,1.4 -2.72,4.16 -3.76,4.16c-2.24,0 2.24,-10.52 2.6,-11.48c0.64,-1.64 -2.64,-3 -3.84,-0.88Zm6.76,-6.16c0.72,-2.08 0.2,-3.72 -1.16,-3.72c-1.36,0 -3.08,1.64 -3.76,3.72c-0.72,2.04 -0.24,3.72 1.12,3.72c1.4,0 3.08,-1.68 3.8,-3.72Z" style="fill:#3c0336;fill-rule:nonzero;"/><path d="M828.662,18.338c-0.16,-0.4 -0.56,-0.48 -0.84,-0.28c-1.52,1.12 -2.88,2 -3.96,2.48c0.84,-2.28 1.32,-4.52 1.32,-6.12c0,-0.92 -0.56,-1.48 -1.32,-1.48c-2.72,0 -3.88,4.76 -3.88,7c0,0.64 0.12,1.16 0.28,1.56c-1.6,3.76 -3.48,6.88 -4.64,6.88c-1.24,0 0.16,-6.36 2.36,-12.68c0.56,-1.64 -3.6,-3.16 -4.4,-0.88c-0.88,2.56 -2.64,7.56 -2.64,11.88c0,3.48 1.68,5.04 3.92,5.04c3.12,0 6.32,-4.56 8.28,-9.32c1.84,-0.48 4.04,-1.92 5.36,-3.24c0.2,-0.2 0.32,-0.56 0.16,-0.84Z" style="fill:#3c0336;fill-rule:nonzero;"/><path d="M840.302,23.098c-0.2,-0.4 -0.72,-0.52 -0.92,-0.12c-0.88,1.64 -4.24,5.96 -7.6,5.96c-1.56,0 -2.44,-1.4 -2.44,-3.36c0,-0.4 0.04,-0.8 0.08,-1.2c4.2,1.44 8.84,-2.24 8.84,-6.84c0,-2.8 -2.2,-4.6 -4.28,-4.6c-4.44,0 -9.04,5.88 -9.04,12.72c0,4.12 2.72,6.08 5.68,6.08c4.92,0 8.4,-5.92 9.64,-8c0.08,-0.16 0.12,-0.48 0.04,-0.64Zm-6.24,-7.4c0.44,0 0.76,0.44 0.76,0.96c0,2.68 -2.92,6.16 -5.08,5.84c0.92,-3.64 3.16,-6.8 4.32,-6.8Z" style="fill:#3c0336;fill-rule:nonzero;"/><path d="M855.502,23.098c-0.16,-0.4 -0.68,-0.44 -0.88,-0.08c-1.56,2.44 -3,4.16 -4.48,5.44c-0.36,-1.84 -1.48,-2.36 -2.6,-2.36c3.28,-3.8 5.4,-7.88 5.4,-10.44c0,-2.8 -2.16,-5 -4.92,-5c-2.72,0 -6,2.68 -8.08,8.88c-0.44,1.32 -0.76,2.52 -0.88,3.6c-0.28,1.96 1.68,2.92 2.84,2.56c0.48,-0.16 1.12,-1.08 1.28,-1.84c0.2,-1.28 0.64,-2.92 1.32,-4.64c1.4,-3.64 3.36,-5.8 4.28,-5.8c1.12,0 0.44,5.12 -6.56,14.44c-0.32,0.44 -0.36,1 -0.12,1.48c0.32,0.72 1.12,0.92 1.68,0.44c0.52,-0.44 1,-0.88 1.52,-1.36c0.24,0.08 0.4,0.4 0.4,1.12c0,0.36 -0.04,0.76 -0.08,1.12c-3.2,1.52 -9.64,5 -9.64,8.64c0,1.68 0.96,3.08 3.32,3.08c4.36,0 10.68,-5.4 10.92,-12.16c2.36,-2.2 4.48,-4.96 5.28,-6.52c0.08,-0.2 0.08,-0.44 0,-0.6Zm-16.76,17.36c-0.56,0 -1.04,-0.48 -1.04,-1.24c0,-1.88 4,-4.48 7.32,-6.16c-1.4,3.84 -4.6,7.4 -6.28,7.4Z" style="fill:#3c0336;fill-rule:nonzero;"/><path d="M865.182,24.058c1.56,-0.04 2.4,-3.08 1,-3.2c-2.52,-0.28 -6,-0.36 -9.76,-0.12c-1.36,0.08 -2.4,2.8 -0.76,2.96c2.76,0.32 7.12,0.48 9.52,0.36Z" style="fill:#3c0336;fill-rule:nonzero;"/><path d="M886.622,18.338c-0.16,-0.4 -0.56,-0.48 -0.84,-0.28c-1.52,1.12 -2.88,2 -3.96,2.48c0.84,-2.28 1.32,-4.52 1.32,-6.12c0,-0.92 -0.56,-1.48 -1.32,-1.48c-2.72,0 -3.88,4.76 -3.88,7c0,0.64 0.12,1.16 0.28,1.56c-1.6,3.76 -3.48,6.88 -4.64,6.88c-1.24,0 0.16,-6.36 2.36,-12.68c0.56,-1.64 -3.6,-3.16 -4.4,-0.88c-0.88,2.56 -2.64,7.56 -2.64,11.88c0,3.48 1.68,5.04 3.92,5.04c3.12,0 6.32,-4.56 8.28,-9.32c1.84,-0.48 4.04,-1.92 5.36,-3.24c0.2,-0.2 0.32,-0.56 0.16,-0.84Z" style="fill:#3c0336;fill-rule:nonzero;"/><path d="M901.102,18.338c-0.16,-0.4 -0.6,-0.52 -0.88,-0.28c-0.76,0.64 -2.28,1.72 -4.04,2.32c1,-4.6 -0.24,-7.44 -2.64,-7.44c-1.48,0 -2.64,0.8 -3.44,1.88c-0.44,-0.76 -1.2,-1.28 -1.92,-1c-2.48,1.12 -5.28,7 -5.28,12.28c0,3.72 1.6,5.64 4.44,5.64c2.76,0 6.08,-2.68 8.16,-8.88c0.12,-0.32 0.2,-0.64 0.28,-0.92c2.32,-0.68 4.28,-2.12 5.12,-2.76c0.24,-0.2 0.32,-0.56 0.2,-0.84Zm-9.28,-2.56c0.64,0.32 0.84,2.28 0.32,4.68c-1.12,-0.6 -1.68,-1.84 -1.68,-3.24c0,-1 0.6,-1.84 1.36,-1.44Zm-0.32,6.96c-1.32,3.72 -3.16,6.6 -4.32,6.04c-1.04,-0.52 -0.56,-4.36 0.68,-7.48c0.4,-1.04 0.84,-2.04 1.24,-2.8c0.2,1.44 1.08,2.84 2.68,3.48c-0.08,0.24 -0.16,0.52 -0.28,0.76Z" style="fill:#3c0336;fill-rule:nonzero;"/><path d="M913.982,23.098c-0.16,-0.4 -0.68,-0.44 -0.88,-0.08c-0.88,1.4 -2.72,4.16 -3.76,4.16c-2.28,0 2.2,-10.52 2.6,-11.48c0.64,-1.64 -2.68,-3 -3.88,-0.88c-0.72,1.28 -2.04,4.6 -2.96,7.92c-0.64,2.16 -2.6,4.44 -3.64,4.44c-2.24,0 2.24,-10.52 2.6,-11.48c0.64,-1.64 -2.64,-3 -3.84,-0.88c-1.2,2.16 -4.04,9.84 -4.04,14.04c0,1.76 0.6,2.88 2,2.88c2.12,0 4.36,-2.2 5.96,-4.52c-0.08,0.6 -0.12,1.16 -0.12,1.64c0,1.76 0.6,2.88 2,2.88c3.32,0 7.12,-6.56 7.96,-8.04c0.08,-0.2 0.08,-0.44 0,-0.6Z" style="fill:#3c0336;fill-rule:nonzero;"/><path d="M914.502,31.738c5.48,0 5.76,-6 5.76,-6.84c0,-3.16 -0.68,-5.44 -1.04,-7.64c2.4,-3.08 4.28,-6.2 2.6,-7.44c-2.04,-1.44 -5.88,2.12 -5.96,6.36c-0.88,3.08 -2.16,5.6 -3.24,7.52c-0.4,0.64 0.44,1.48 0.88,0.76c0.44,-0.72 1.32,-2.28 2.32,-4.28c0,1.6 0,3.24 0,5.56c0,1.24 -0.6,3.6 -2,3.6c-0.8,0 -1.32,-0.8 -1.68,-1.56c-0.28,-0.48 -1.56,1.08 -1.28,1.56c0.56,1.04 1.52,2.4 3.24,2.4c0.12,0 0.24,0 0.4,0Z" style="fill:#3c0336;fill-rule:nonzero;"/><path d="M948.422,23.098c-0.2,-0.4 -0.6,-0.6 -0.84,-0.2c-1.2,2.24 -3.88,5.52 -6.68,6.4c1.28,-1.48 2.52,-3.6 3.48,-6.44c2.04,-6.04 0.84,-9.92 -1.96,-9.92c-1.72,0 -3.12,1.16 -4.16,2.44c0.04,-1.48 -3.04,-2.56 -3.92,-0.48c-2.92,6.88 -6.56,21.2 -6.56,22.28c0,2.52 3.32,3.56 3.6,1.8c0.24,-1.56 1.16,-5.48 2.44,-10.04c0,1.44 0.72,2.8 2.44,2.8c6.36,0.36 10.8,-5.56 12.16,-8c0.08,-0.2 0.08,-0.48 0,-0.64Zm-12.88,5.88c-0.84,-0.44 -0.36,-3.76 1.04,-7.4c1.44,-3.64 3.28,-6.24 4.12,-5.8c0.84,0.44 0.36,3.72 -1.04,7.36c-1.44,3.64 -3.28,6.28 -4.12,5.84Z" style="fill:#3c0336;fill-rule:nonzero;"/><path d="M964.102,18.338c-0.16,-0.4 -0.6,-0.52 -0.88,-0.28c-0.76,0.64 -2.28,1.72 -4.04,2.32c1,-4.6 -0.24,-7.44 -2.64,-7.44c-1.48,0 -2.64,0.8 -3.44,1.88c-0.44,-0.76 -1.2,-1.28 -1.92,-1c-2.48,1.12 -5.28,7 -5.28,12.28c0,3.72 1.6,5.64 4.44,5.64c2.76,0 6.08,-2.68 8.16,-8.88c0.12,-0.32 0.2,-0.64 0.28,-0.92c2.32,-0.68 4.28,-2.12 5.12,-2.76c0.24,-0.2 0.32,-0.56 0.2,-0.84Zm-9.28,-2.56c0.64,0.32 0.84,2.28 0.32,4.68c-1.12,-0.6 -1.68,-1.84 -1.68,-3.24c0,-1 0.6,-1.84 1.36,-1.44Zm-0.32,6.96c-1.32,3.72 -3.16,6.6 -4.32,6.04c-1.04,-0.52 -0.56,-4.36 0.68,-7.48c0.4,-1.04 0.84,-2.04 1.24,-2.8c0.2,1.44 1.08,2.84 2.68,3.48c-0.08,0.24 -0.16,0.52 -0.28,0.76Z" style="fill:#3c0336;fill-rule:nonzero;"/><path d="M976.982,23.098c-0.16,-0.4 -0.68,-0.44 -0.88,-0.08c-0.88,1.4 -2.72,4.16 -3.76,4.16c-2.28,0 2.2,-10.52 2.6,-11.48c0.64,-1.64 -2.68,-3 -3.88,-0.88c-0.72,1.28 -2.04,4.6 -2.96,7.92c-0.64,2.16 -2.6,4.44 -3.64,4.44c-2.24,0 2.24,-10.52 2.6,-11.48c0.64,-1.64 -2.64,-3 -3.84,-0.88c-1.2,2.16 -4.04,9.84 -4.04,14.04c0,1.76 0.6,2.88 2,2.88c2.12,0 4.36,-2.2 5.96,-4.52c-0.08,0.6 -0.12,1.16 -0.12,1.64c0,1.76 0.6,2.88 2,2.88c3.32,0 7.12,-6.56 7.96,-8.04c0.08,-0.2 0.08,-0.44 0,-0.6Z" style="fill:#3c0336;fill-rule:nonzero;"/><path d="M989.382,23.098c-0.2,-0.4 -0.68,-0.44 -0.92,-0.08c-0.88,1.4 -2.72,4.16 -3.76,4.16c-2.24,0 2.24,-10.52 2.6,-11.48c0.52,-1.36 -1.64,-2.52 -3.08,-1.68c-1.24,0.68 -2.28,1.12 -3.12,1.2c1.16,-2.88 1.56,-4.08 1.56,-5.8c0,-1.24 -0.56,-2.16 -1.32,-2.16c-1.44,0 -3.64,2.76 -3.64,5.76c0,0.88 0.32,2.28 1.16,3.24c-0.88,3.04 -2.12,5.64 -3.24,7.52c-0.36,0.64 0.44,1.4 0.92,0.68c0.64,-1.08 2.28,-3.92 3.76,-7.28c0.28,0.08 0.56,0.12 0.88,0.12c0.52,0 0.92,-0.04 1.2,-0.16c-1.32,3.24 -2.96,8.52 -2.96,11.72c0,1.76 0.6,2.88 2,2.88c3.28,0 7.12,-6.56 7.92,-8.04c0.12,-0.2 0.12,-0.44 0.04,-0.6Z" style="fill:#3c0336;fill-rule:nonzero;"/><path d="M708.502,60.152c-0.16,-0.4 -0.68,-0.52 -0.88,-0.12c-0.52,0.92 -1.84,2.8 -3.52,4.16c0.16,-0.64 0.28,-1.4 0.28,-2.24c0,-3.16 -0.68,-5.44 -1.04,-7.64c2.4,-3.08 4.28,-6.2 2.6,-7.44c-2.04,-1.44 -5.88,2.12 -5.96,6.36c-0.88,3.08 -2.16,5.6 -3.24,7.52c-0.4,0.64 0.44,1.48 0.88,0.76c0.44,-0.72 1.32,-2.28 2.32,-4.28c0,1.6 0,3.24 0,5.56c0,1.24 -0.6,3.6 -2,3.6c-0.8,0 -1.32,-0.8 -1.68,-1.56c-0.28,-0.48 -1.56,1.08 -1.28,1.56c0.56,1.04 1.52,2.4 3.24,2.4c0.12,0 0.24,0 0.4,0c5.08,0.08 8.68,-6 9.88,-8.04c0.12,-0.16 0.12,-0.44 0,-0.6Z" style="fill:#3c0336;fill-rule:nonzero;"/><path d="M723.782,60.152c-0.16,-0.4 -0.68,-0.44 -0.88,-0.08c-0.88,1.4 -2.72,4.16 -3.76,4.16c-2.28,0 2.2,-10.52 2.6,-11.48c0.64,-1.64 -2.68,-3 -3.88,-0.88c-0.72,1.28 -2.04,4.6 -2.96,7.92c-0.64,2.16 -2.6,4.44 -3.64,4.44c-2.24,0 2.24,-10.52 2.6,-11.48c0.64,-1.64 -2.64,-3 -3.84,-0.88c-1.2,2.16 -4.04,9.84 -4.04,14.04c0,1.76 0.6,2.88 2,2.88c2.12,0 4.36,-2.2 5.96,-4.52c-0.08,0.6 -0.12,1.16 -0.12,1.64c0,1.76 0.6,2.88 2,2.88c3.32,0 7.12,-6.56 7.96,-8.04c0.08,-0.2 0.08,-0.44 0,-0.6Z" style="fill:#3c0336;fill-rule:nonzero;"/><path d="M725.502,51.872c-1.2,2.16 -4.04,9.84 -4.04,14.04c0,1.76 0.6,2.88 2,2.88c3.32,0 7.12,-6.56 7.92,-8.04c0.12,-0.2 0.12,-0.44 0.04,-0.6c-0.2,-0.4 -0.68,-0.44 -0.92,-0.08c-0.88,1.4 -2.72,4.16 -3.76,4.16c-2.24,0 2.24,-10.52 2.6,-11.48c0.64,-1.64 -2.64,-3 -3.84,-0.88Zm6.76,-6.16c0.72,-2.08 0.2,-3.72 -1.16,-3.72c-1.36,0 -3.08,1.64 -3.76,3.72c-0.72,2.04 -0.24,3.72 1.12,3.72c1.4,0 3.08,-1.68 3.8,-3.72Z" style="fill:#3c0336;fill-rule:nonzero;"/><path d="M756.862,60.152c-0.2,-0.4 -0.68,-0.44 -0.92,-0.08c-0.88,1.4 -2.72,4.16 -3.76,4.16c-2.24,0 2.24,-10.52 2.6,-11.48c0.52,-1.36 -1.64,-2.52 -3.08,-1.68c-1.24,0.68 -2.28,1.12 -3.12,1.2c1.16,-2.88 1.56,-4.08 1.56,-5.8c0,-1.24 -0.56,-2.16 -1.32,-2.16c-1.44,0 -3.64,2.76 -3.64,5.76c0,0.84 0.28,2.16 1.04,3.12c-0.92,1.56 -2.16,3.16 -3.68,4.04c0.72,-2.2 1.16,-4.24 1.16,-5.76c0,-0.92 -0.56,-1.48 -1.32,-1.48c-2.72,0 -3.88,4.76 -3.88,7c0,0.64 0.12,1.16 0.28,1.56c-1.6,3.76 -3.48,6.88 -4.64,6.88c-1.24,0 0.16,-6.36 2.36,-12.68c0.56,-1.64 -3.6,-3.16 -4.4,-0.88c-0.88,2.56 -2.64,7.56 -2.64,11.88c0,3.48 1.68,5.04 3.92,5.04c3.2,0 6.48,-4.84 8.48,-9.76c2.2,-0.64 4.12,-2.36 5.76,-4.92l0.16,0.12c0.28,0.08 0.56,0.12 0.88,0.12c0.52,0 0.92,-0.04 1.2,-0.16c-1.32,3.24 -2.96,8.52 -2.96,11.72c0,1.76 0.6,2.88 2,2.88c3.28,0 7.12,-6.56 7.92,-8.04c0.12,-0.2 0.12,-0.44 0.04,-0.6Z" style="fill:#3c0336;fill-rule:nonzero;"/><path d="M770.262,60.152c-0.2,-0.4 -0.72,-0.52 -0.92,-0.12c-0.88,1.64 -4.24,5.96 -7.6,5.96c-1.56,0 -2.44,-1.4 -2.44,-3.36c0,-0.4 0.04,-0.8 0.08,-1.2c4.2,1.44 8.84,-2.24 8.84,-6.84c0,-2.8 -2.2,-4.6 -4.28,-4.6c-4.44,0 -9.04,5.88 -9.04,12.72c0,4.12 2.72,6.08 5.68,6.08c4.92,0 8.4,-5.92 9.64,-8c0.08,-0.16 0.12,-0.48 0.04,-0.64Zm-6.24,-7.4c0.44,0 0.76,0.44 0.76,0.96c0,2.68 -2.92,6.16 -5.08,5.84c0.92,-3.64 3.16,-6.8 4.32,-6.8Z" style="fill:#3c0336;fill-rule:nonzero;"/><path d="M787.302,43.352c0.52,-1.68 -2.88,-3.16 -3.88,-0.88c-0.6,1.52 -3.2,9.12 -4.8,14.4c-0.92,3 -2.12,6.64 -2.12,9.04c0,1.76 0.76,2.88 2.36,2.88c3.8,0 7.48,-6.6 8.32,-8.08c0.08,-0.2 0.08,-0.4 -0.04,-0.56c-0.16,-0.4 -0.68,-0.52 -0.92,-0.12c-0.84,1.4 -2.6,4.2 -4.08,4.2c-1.44,0 -0.6,-3.12 0.28,-6.2c2.12,-7.32 4.48,-13.32 4.88,-14.68Z" style="fill:#3c0336;fill-rule:nonzero;"/><path d="M792.542,42.072c-2.52,0 -3.92,5.24 -1.8,5.24c0,0.6 -1.32,1.6 -1.96,2.08c-0.24,0.12 -0.28,0.4 -0.2,0.64c0.12,0.28 0.44,0.4 0.72,0.24c1.16,-0.56 3.88,-2.28 4.6,-5.56c0.32,-1.48 0,-2.64 -1.36,-2.64Z" style="fill:#3c0336;fill-rule:nonzero;"/><path d="M809.262,60.152c-0.2,-0.4 -0.68,-0.44 -0.92,-0.08c-0.88,1.4 -2.72,4.16 -3.76,4.16c-2.24,0 2.24,-10.52 2.6,-11.48c0.64,-1.64 -2.68,-3 -3.84,-0.88c-0.28,0.48 -0.6,1.2 -0.96,2.08c0.36,-1.8 -0.28,-3.96 -2.48,-3.96c-2.76,0 -5.88,2.72 -7.68,8.92c-1.72,6 -0.32,9.88 2.44,9.88c2.16,0 3.68,-1.72 4.64,-3.32c0,0.16 0,0.32 0,0.44c0,1.76 0.6,2.88 2,2.88c3.28,0 7.08,-6.56 7.92,-8.04c0.12,-0.2 0.12,-0.44 0.04,-0.6Zm-13,5.8c-0.84,-0.44 -0.56,-3.72 0.68,-7.36c1.24,-3.64 2.96,-6.24 3.8,-5.84c0.88,0.44 0.56,3.76 -0.68,7.4c-1.24,3.64 -2.92,6.24 -3.8,5.8Z" style="fill:#3c0336;fill-rule:nonzero;"/><path d="M825.022,55.392c-0.16,-0.4 -0.56,-0.48 -0.84,-0.28c-1.52,1.12 -2.88,2 -3.96,2.48c0.84,-2.28 1.32,-4.52 1.32,-6.12c0,-0.92 -0.56,-1.48 -1.32,-1.48c-2.72,0 -3.88,4.76 -3.88,7c0,0.64 0.12,1.16 0.28,1.56c-1.6,3.76 -3.48,6.88 -4.64,6.88c-1.24,0 0.16,-6.36 2.36,-12.68c0.56,-1.64 -3.6,-3.16 -4.4,-0.88c-0.88,2.56 -2.64,7.56 -2.64,11.88c0,3.48 1.68,5.04 3.92,5.04c3.12,0 6.32,-4.56 8.28,-9.32c1.84,-0.48 4.04,-1.92 5.36,-3.24c0.2,-0.2 0.32,-0.56 0.16,-0.84Z" style="fill:#3c0336;fill-rule:nonzero;"/><path d="M838.742,60.152c-0.2,-0.4 -0.68,-0.44 -0.92,-0.08c-0.88,1.4 -2.72,4.16 -3.76,4.16c-2.24,0 2.24,-10.52 2.6,-11.48c0.64,-1.64 -2.68,-3 -3.84,-0.88c-0.28,0.48 -0.6,1.2 -0.96,2.08c0.36,-1.8 -0.28,-3.96 -2.48,-3.96c-2.76,0 -5.88,2.72 -7.68,8.92c-1.72,6 -0.32,9.88 2.44,9.88c2.16,0 3.68,-1.72 4.64,-3.32c0,0.16 0,0.32 0,0.44c0,1.76 0.6,2.88 2,2.88c3.28,0 7.08,-6.56 7.92,-8.04c0.12,-0.2 0.12,-0.44 0.04,-0.6Zm-13,5.8c-0.84,-0.44 -0.56,-3.72 0.68,-7.36c1.24,-3.64 2.96,-6.24 3.8,-5.84c0.88,0.44 0.56,3.76 -0.68,7.4c-1.24,3.64 -2.92,6.24 -3.8,5.8Z" style="fill:#3c0336;fill-rule:nonzero;"/><path d="M853.862,60.152c-0.16,-0.4 -0.68,-0.44 -0.88,-0.08c-0.88,1.4 -2.72,4.16 -3.76,4.16c-1.6,0 0.4,-5.52 1.56,-8.96c0.72,-2.2 0.28,-5.28 -2.16,-5.28c-1.76,0 -3.6,1.88 -5.04,4.28c0.2,-0.6 0.36,-1.12 0.52,-1.52c0.64,-1.64 -2.76,-3.08 -3.84,-0.88c-1.2,2.44 -3.88,12.04 -3.88,14.24c0,2.56 3.32,3.56 3.6,1.8c0.24,-1.4 0.92,-4.2 1.68,-7.04c1.04,-2.96 3.48,-6.52 4.48,-6.52c0.52,0 0.12,1.68 -0.12,2.52c-0.92,3 -2.12,6.64 -2.12,9.04c0,1.76 0.6,2.88 2,2.88c3.32,0 7.12,-6.56 7.96,-8.04c0.08,-0.2 0.08,-0.44 0,-0.6Z" style="fill:#3c0336;fill-rule:nonzero;"/><path d="M866.382,60.032c-0.88,1.64 -4.24,5.96 -7.6,5.96c-1.56,0 -2.44,-1.4 -2.44,-3.36c0,-4.72 3.24,-9.88 4.72,-9.88c0.44,0 0.76,0.44 0.76,0.96c0,1.12 -0.76,2.2 -1.48,3.2c-0.56,0.76 -0.56,1.96 0.08,2.76c0.8,0.96 1.84,0.8 2.44,0.24c1.44,-1.32 2.4,-3.2 2.4,-5.32c0,-2.8 -2.2,-4.6 -4.28,-4.6c-4.44,0 -9.04,5.88 -9.04,12.72c0,4.12 2.72,6.08 5.68,6.08c4.92,0 8.4,-5.92 9.64,-8c0.08,-0.16 0.12,-0.48 0.04,-0.64c-0.2,-0.4 -0.72,-0.52 -0.92,-0.12Z" style="fill:#3c0336;fill-rule:nonzero;"/><path d="M880.742,60.152c-0.2,-0.4 -0.72,-0.52 -0.92,-0.12c-0.88,1.64 -4.24,5.96 -7.6,5.96c-1.56,0 -2.44,-1.4 -2.44,-3.36c0,-0.4 0.04,-0.8 0.08,-1.2c4.2,1.44 8.84,-2.24 8.84,-6.84c0,-2.8 -2.2,-4.6 -4.28,-4.6c-4.44,0 -9.04,5.88 -9.04,12.72c0,4.12 2.72,6.08 5.68,6.08c4.92,0 8.4,-5.92 9.64,-8c0.08,-0.16 0.12,-0.48 0.04,-0.64Zm-6.24,-7.4c0.44,0 0.76,0.44 0.76,0.96c0,2.68 -2.92,6.16 -5.08,5.84c0.92,-3.64 3.16,-6.8 4.32,-6.8Zm-0.04,-9.8c-0.52,2.28 -1.68,4.04 -2.64,4.64c-0.52,0.28 0.88,1.56 1.64,1.28c1.2,-0.4 3.44,-3.08 3.44,-3.92c0,-1.44 -2.2,-3.08 -2.44,-2Z" style="fill:#3c0336;fill-rule:nonzero;"/><path d="M894.182,60.152c-0.2,-0.4 -0.72,-0.52 -0.92,-0.12c-0.88,1.64 -4.24,5.96 -7.6,5.96c-1.56,0 -2.44,-1.4 -2.44,-3.36c0,-0.4 0.04,-0.8 0.08,-1.2c4.2,1.44 8.84,-2.24 8.84,-6.84c0,-2.8 -2.2,-4.6 -4.28,-4.6c-4.44,0 -9.04,5.88 -9.04,12.72c0,4.12 2.72,6.08 5.68,6.08c4.92,0 8.4,-5.92 9.64,-8c0.08,-0.16 0.12,-0.48 0.04,-0.64Zm-6.24,-7.4c0.44,0 0.76,0.44 0.76,0.96c0,2.68 -2.92,6.16 -5.08,5.84c0.92,-3.64 3.16,-6.8 4.32,-6.8Z" style="fill:#3c0336;fill-rule:nonzero;"/><path d="M918.982,43.352c0.64,-1.64 -2.92,-3.16 -3.88,-0.88c-1.28,3.04 -2.56,6.64 -3.68,10.12c-0.12,-1.36 -0.92,-2.6 -2.56,-2.6c-2.76,0 -5.88,2.72 -7.68,8.92c-1.72,6 -0.32,9.88 2.44,9.88c2.12,0 3.64,-1.68 4.6,-3.24c-0.04,0.16 -0.04,0.28 -0.04,0.4c0,1.72 0.64,2.84 2.04,2.84c3.28,0 7.08,-6.56 7.92,-8.04c0.08,-0.2 0.12,-0.44 0,-0.6c-0.16,-0.4 -0.64,-0.44 -0.88,-0.08c-0.88,1.4 -2.72,4.16 -3.76,4.16c-0.76,0 -0.64,-1.32 -0.08,-3.68c1.64,-6.68 3.32,-11.68 5.56,-17.2Zm-13.76,22.6c-0.84,-0.44 -0.56,-3.72 0.68,-7.36c1.24,-3.64 2.96,-6.24 3.8,-5.84c0.88,0.44 0.56,3.76 -0.68,7.4c-1.24,3.64 -2.92,6.24 -3.8,5.8Z" style="fill:#3c0336;fill-rule:nonzero;"/><path d="M933.422,60.152c-0.16,-0.4 -0.68,-0.44 -0.88,-0.08c-0.88,1.4 -2.72,4.16 -3.76,4.16c-2.28,0 2.2,-10.52 2.6,-11.48c0.64,-1.64 -2.68,-3 -3.88,-0.88c-0.72,1.28 -2.04,4.6 -2.96,7.92c-0.64,2.16 -2.6,4.44 -3.64,4.44c-2.24,0 2.24,-10.52 2.6,-11.48c0.64,-1.64 -2.64,-3 -3.84,-0.88c-1.2,2.16 -4.04,9.84 -4.04,14.04c0,1.76 0.6,2.88 2,2.88c2.12,0 4.36,-2.2 5.96,-4.52c-0.08,0.6 -0.12,1.16 -0.12,1.64c0,1.76 0.6,2.88 2,2.88c3.32,0 7.12,-6.56 7.96,-8.04c0.08,-0.2 0.08,-0.44 0,-0.6Z" style="fill:#3c0336;fill-rule:nonzero;"/><path d="M957.462,60.152c-0.2,-0.4 -0.6,-0.6 -0.84,-0.2c-1.2,2.24 -3.88,5.52 -6.68,6.4c1.28,-1.48 2.52,-3.6 3.48,-6.44c2.04,-6.04 0.84,-9.92 -1.96,-9.92c-1.72,0 -3.12,1.16 -4.16,2.44c0.04,-1.48 -3.04,-2.56 -3.92,-0.48c-2.92,6.88 -6.56,21.2 -6.56,22.28c0,2.52 3.32,3.56 3.6,1.8c0.24,-1.56 1.16,-5.48 2.44,-10.04c0,1.44 0.72,2.8 2.44,2.8c6.36,0.36 10.8,-5.56 12.16,-8c0.08,-0.2 0.08,-0.48 0,-0.64Zm-12.88,5.88c-0.84,-0.44 -0.36,-3.76 1.04,-7.4c1.44,-3.64 3.28,-6.24 4.12,-5.8c0.84,0.44 0.36,3.72 -1.04,7.36c-1.44,3.64 -3.28,6.28 -4.12,5.84Z" style="fill:#3c0336;fill-rule:nonzero;"/><path d="M969.862,60.152c-0.2,-0.4 -0.68,-0.44 -0.92,-0.08c-0.88,1.4 -2.72,4.16 -3.76,4.16c-2.24,0 2.24,-10.52 2.6,-11.48c0.52,-1.36 -1.64,-2.52 -3.08,-1.68c-1.24,0.68 -2.28,1.12 -3.12,1.2c1.16,-2.88 1.56,-4.08 1.56,-5.8c0,-1.24 -0.56,-2.16 -1.32,-2.16c-1.44,0 -3.64,2.76 -3.64,5.76c0,0.88 0.32,2.28 1.16,3.24c-0.88,3.04 -2.12,5.64 -3.24,7.52c-0.36,0.64 0.44,1.4 0.92,0.68c0.64,-1.08 2.28,-3.92 3.76,-7.28c0.28,0.08 0.56,0.12 0.88,0.12c0.52,0 0.92,-0.04 1.2,-0.16c-1.32,3.24 -2.96,8.52 -2.96,11.72c0,1.76 0.6,2.88 2,2.88c3.28,0 7.12,-6.56 7.92,-8.04c0.12,-0.2 0.12,-0.44 0.04,-0.6Z" style="fill:#3c0336;fill-rule:nonzero;"/><path d="M986.102,55.392c-0.16,-0.4 -0.6,-0.52 -0.88,-0.28c-0.76,0.64 -2.28,1.72 -4.04,2.32c1,-4.6 -0.24,-7.44 -2.64,-7.44c-1.48,0 -2.64,0.8 -3.44,1.88c-0.44,-0.76 -1.2,-1.28 -1.92,-1c-2.48,1.12 -5.28,7 -5.28,12.28c0,3.72 1.6,5.64 4.44,5.64c2.76,0 6.08,-2.68 8.16,-8.88c0.12,-0.32 0.2,-0.64 0.28,-0.92c2.32,-0.68 4.28,-2.12 5.12,-2.76c0.24,-0.2 0.32,-0.56 0.2,-0.84Zm-9.28,-2.56c0.64,0.32 0.84,2.28 0.32,4.68c-1.12,-0.6 -1.68,-1.84 -1.68,-3.24c0,-1 0.6,-1.84 1.36,-1.44Zm-0.32,6.96c-1.32,3.72 -3.16,6.6 -4.32,6.04c-1.04,-0.52 -0.56,-4.36 0.68,-7.48c0.4,-1.04 0.84,-2.04 1.24,-2.8c0.2,1.44 1.08,2.84 2.68,3.48c-0.08,0.24 -0.16,0.52 -0.28,0.76Z" style="fill:#3c0336;fill-rule:nonzero;"/><path d="M990.542,60.072c-1.96,3.08 -3.72,4.96 -5.64,6.36c1.44,-5 3.08,-10.36 4.4,-13.6c0.64,-1.64 -2.92,-3.16 -3.88,-0.88c-1.76,4.24 -3.92,11.2 -5.56,17.16c-2.76,1.44 -6.48,3.92 -6.48,7.24c0,1.68 0.96,3.08 3.32,3.08c2.8,0 5.04,-2.24 6.68,-7.84c0.24,-0.84 0.52,-1.76 0.76,-2.68c3.08,-2.16 6.28,-6.16 7.28,-8.16c0.12,-0.2 0.12,-0.44 0.04,-0.6c-0.2,-0.4 -0.68,-0.44 -0.92,-0.08Zm-14.4,17.44c-0.56,0 -1.04,-0.48 -1.04,-1.24c0,-1.64 1.84,-3.32 4.08,-4.68c-0.28,0.92 -0.48,1.84 -0.72,2.64c-0.48,1.92 -1.2,3.28 -2.32,3.28Zm16.08,-31.8c0.72,-2.08 0.2,-3.72 -1.16,-3.72c-1.36,0 -3.08,1.64 -3.76,3.72c-0.72,2.04 -0.24,3.72 1.12,3.72c1.4,0 3.08,-1.68 3.8,-3.72Z" style="fill:#3c0336;fill-rule:nonzero;"/><path d="M1004.9,60.152c-0.2,-0.4 -0.72,-0.52 -0.92,-0.12c-0.88,1.64 -4.24,5.96 -7.6,5.96c-1.56,0 -2.44,-1.4 -2.44,-3.36c0,-0.4 0.04,-0.8 0.08,-1.2c4.2,1.44 8.84,-2.24 8.84,-6.84c0,-2.8 -2.2,-4.6 -4.28,-4.6c-4.44,0 -9.04,5.88 -9.04,12.72c0,4.12 2.72,6.08 5.68,6.08c4.92,0 8.4,-5.92 9.64,-8c0.08,-0.16 0.12,-0.48 0.04,-0.64Zm-6.24,-7.4c0.44,0 0.76,0.44 0.76,0.96c0,2.68 -2.92,6.16 -5.08,5.84c0.92,-3.64 3.16,-6.8 4.32,-6.8Z" style="fill:#3c0336;fill-rule:nonzero;"/><path d="M1009.74,42.472c-0.44,1.08 -1.88,5.32 -3.28,9.6c-0.64,0.08 -1.12,0.16 -1.36,0.24c-1.04,0.2 -2.16,2.28 -1.12,2.32c0.28,0.04 0.88,0.04 1.64,0.08c-0.24,0.76 -0.48,1.48 -0.68,2.16c-0.92,3 -2.12,6.64 -2.12,9.04c0,1.76 0.76,2.88 2.36,2.88c3.8,0 7.44,-6.56 8.28,-8.04c0.08,-0.2 0.12,-0.44 0,-0.6c-0.16,-0.4 -0.64,-0.44 -0.88,-0.08c-0.88,1.4 -2.64,4.16 -4.12,4.16c-1.44,0 -0.6,-3.12 0.28,-6.2c0.32,-1.12 0.68,-2.24 1,-3.32c0.8,-0.04 1.4,-0.12 1.72,-0.24c1,-0.48 1.96,-3.48 1.08,-3.36c-0.24,0.04 -0.88,0.12 -1.72,0.24c1.36,-4.08 2.52,-7.08 2.8,-8c0.52,-1.68 -2.88,-3.16 -3.88,-0.88Z" style="fill:#3c0336;fill-rule:nonzero;"/><path d="M1027.86,66.192c0.36,-1.44 -0.48,-2.6 -1.88,-2.6c-1.36,0 -2.76,1.16 -3.12,2.6c-0.36,1.44 0.48,2.6 1.88,2.6c1.4,0 2.8,-1.16 3.12,-2.6Zm0.24,-4.84c1.92,-3.64 4.44,-9.48 6.64,-16.16c0.56,-1.68 -3.64,-4.12 -4.28,-1.76c-1.64,6.04 -2.76,9.56 -4.96,15.88c-0.52,1.48 2.2,2.76 2.6,2.04Z" style="fill:#3c0336;fill-rule:nonzero;"/></g></svg>