<?xml version="1.0" encoding="UTF-8" standalone="no"?><!DOCTYPE svg PUBLIC "-//W3C//DTD SVG 1.1//EN" "http://www.w3.org/Graphics/SVG/1.1/DTD/svg11.dtd"><svg width="100%" height="100%" viewBox="0 0 300 56" version="1.1" xmlns="http://www.w3.org/2000/svg" xmlns:xlink="http://www.w3.org/1999/xlink" xml:space="preserve" style="fill-rule:evenodd;clip-rule:evenodd;stroke-linejoin:round;stroke-miterlimit:1.41421;"><g><g><path d="M85.224,22.861c-0.549,2.693 4.04,3.841 5.187,1.397c2.644,-5.637 2.245,-12.769 -4.639,-12.769c-6.583,0 -15.861,12.07 -15.861,23.642c0,6.983 4.34,9.576 8.18,9.576c6.185,0 10.175,-5.935 11.123,-9.925c0.748,-2.893 -2.394,-4.788 -2.993,-2.943c-1.795,5.487 -5.237,9.477 -7.581,9.477c-1.796,0 -2.943,-1.846 -2.943,-5.586c0,-10.525 8.579,-22.146 11.322,-22.146c1.646,0 -0.997,5.087 -1.795,9.277Z" style="fill:#fff;fill-rule:nonzero;"/><path d="M113.903,27.998c-0.199,-0.498 -0.748,-0.648 -1.097,-0.349c-0.948,0.798 -2.843,2.145 -5.038,2.893c1.247,-5.736 -0.299,-9.277 -3.291,-9.277c-1.846,0 -3.292,0.998 -4.29,2.344c-0.549,-0.947 -1.496,-1.596 -2.394,-1.247c-3.092,1.397 -6.584,8.729 -6.584,15.313c0,4.638 1.995,7.032 5.536,7.032c3.442,0 7.582,-3.341 10.176,-11.072c0.149,-0.399 0.249,-0.798 0.349,-1.148c2.893,-0.847 5.337,-2.643 6.384,-3.441c0.299,-0.25 0.399,-0.698 0.249,-1.048Zm-11.571,-3.192c0.798,0.399 1.047,2.843 0.399,5.836c-1.397,-0.748 -2.095,-2.294 -2.095,-4.04c0,-1.247 0.748,-2.294 1.696,-1.796Zm-0.399,8.679c-1.646,4.639 -3.941,8.23 -5.387,7.532c-1.297,-0.649 -0.698,-5.437 0.848,-9.328c0.499,-1.296 1.047,-2.543 1.546,-3.491c0.25,1.796 1.347,3.541 3.342,4.339c-0.1,0.3 -0.2,0.649 -0.349,0.948Z" style="fill:#fff;fill-rule:nonzero;"/><path d="M129.964,33.934c-0.199,-0.499 -0.848,-0.549 -1.097,-0.1c-1.098,1.746 -3.392,5.187 -4.689,5.187c-2.843,0 2.744,-13.117 3.242,-14.314c0.798,-2.045 -3.342,-3.741 -4.838,-1.098c-0.898,1.596 -2.544,5.736 -3.691,9.876c-0.798,2.693 -3.242,5.536 -4.539,5.536c-2.793,0 2.793,-13.117 3.242,-14.314c0.798,-2.045 -3.292,-3.741 -4.788,-1.098c-1.496,2.694 -5.038,12.27 -5.038,17.507c0,2.195 0.749,3.591 2.494,3.591c2.644,0 5.437,-2.743 7.432,-5.636c-0.1,0.748 -0.149,1.447 -0.149,2.045c0,2.195 0.748,3.591 2.493,3.591c4.14,0 8.879,-8.179 9.926,-10.025c0.1,-0.249 0.1,-0.549 0,-0.748Z" style="fill:#fff;fill-rule:nonzero;"/><path d="M145.426,33.934c-0.249,-0.499 -0.848,-0.549 -1.147,-0.1c-1.097,1.746 -3.392,5.187 -4.689,5.187c-2.793,0 2.794,-13.117 3.243,-14.314c0.648,-1.696 -2.045,-3.143 -3.841,-2.095c-1.546,0.848 -2.843,1.396 -3.891,1.496c1.447,-3.591 1.946,-5.088 1.946,-7.232c0,-1.546 -0.699,-2.694 -1.646,-2.694c-1.796,0 -4.539,3.442 -4.539,7.183c0,1.097 0.399,2.843 1.446,4.04c-1.097,3.791 -2.643,7.033 -4.04,9.377c-0.449,0.798 0.549,1.746 1.147,0.848c0.798,-1.347 2.843,-4.888 4.689,-9.078c0.349,0.1 0.698,0.15 1.097,0.15c0.649,0 1.147,-0.05 1.497,-0.2c-1.646,4.04 -3.691,10.624 -3.691,14.614c0,2.195 0.748,3.591 2.493,3.591c4.09,0 8.879,-8.179 9.876,-10.025c0.15,-0.249 0.15,-0.549 0.05,-0.748Z" style="fill:#fff;fill-rule:nonzero;"/><path d="M158.394,33.934c-0.199,-0.499 -0.848,-0.649 -1.097,-0.15c-0.648,1.147 -2.294,3.492 -4.389,5.188c0.199,-0.798 0.349,-1.746 0.349,-2.794c0,-3.94 -0.848,-6.783 -1.297,-9.526c2.993,-3.841 5.337,-7.731 3.242,-9.278c-2.544,-1.795 -7.332,2.644 -7.432,7.931c-1.097,3.841 -2.693,6.983 -4.04,9.377c-0.498,0.798 0.549,1.846 1.098,0.948c0.548,-0.898 1.646,-2.843 2.893,-5.337c0,1.995 0,4.04 0,6.933c0,1.546 -0.749,4.489 -2.494,4.489c-0.998,0 -1.646,-0.998 -2.095,-1.945c-0.349,-0.599 -1.945,1.346 -1.596,1.945c0.698,1.297 1.895,2.992 4.04,2.992c0.149,0 0.299,0 0.499,0c6.334,0.1 10.823,-7.481 12.319,-10.025c0.15,-0.199 0.15,-0.549 0,-0.748Z" style="fill:#fff;fill-rule:nonzero;"/><path d="M175.153,33.934c-0.249,-0.499 -0.898,-0.649 -1.147,-0.15c-1.097,2.045 -5.287,7.432 -9.477,7.432c-1.945,0 -3.042,-1.746 -3.042,-4.19c0,-0.498 0.05,-0.997 0.1,-1.496c5.237,1.796 11.023,-2.793 11.023,-8.529c0,-3.492 -2.744,-5.736 -5.337,-5.736c-5.537,0 -11.273,7.332 -11.273,15.861c0,5.137 3.392,7.581 7.083,7.581c6.135,0 10.474,-7.381 12.02,-9.975c0.1,-0.2 0.15,-0.599 0.05,-0.798Zm-7.781,-9.227c0.549,0 0.948,0.548 0.948,1.197c0,3.341 -3.641,7.681 -6.334,7.282c1.147,-4.539 3.94,-8.479 5.386,-8.479Z" style="fill:#fff;fill-rule:nonzero;"/><path d="M175.852,44.707c4.328,-0.063 6.391,-3.968 6.833,-5.735c0.199,-0.798 0.349,-1.746 0.349,-2.794c0,-3.94 -0.848,-6.783 -1.297,-9.526c2.993,-3.841 5.337,-7.731 3.242,-9.278c-2.544,-1.795 -7.332,2.644 -7.432,7.931c-1.097,3.841 -2.693,6.983 -4.04,9.377c-0.498,0.798 0.549,1.846 1.098,0.948c0.548,-0.898 1.646,-2.843 2.893,-5.337c0,1.995 0,4.04 0,6.933c0,1.546 -0.749,4.489 -2.494,4.489c-0.998,0 -1.646,-0.998 -2.095,-1.945c-0.349,-0.599 -1.945,1.346 -1.596,1.945c0.698,1.297 1.895,2.992 4.04,2.992c0.149,0 0.299,0.003 0.499,0Z" style="fill:#fff;fill-rule:nonzero;"/><path d="M213.26,19.669c0,-5.437 -5.636,-8.28 -11.123,-8.28c-9.626,0 -14.863,7.931 -14.863,11.522c0,4.14 3.94,4.688 3.94,2.743c0,-3.99 4.24,-11.721 10.724,-11.721c3.092,0 5.037,1.646 5.037,5.137c0,5.287 -4.189,9.477 -8.279,11.023c1.097,-3.541 2.394,-7.431 3.99,-11.322c0.798,-1.995 -4.14,-3.89 -5.337,-1.047c-4.19,9.975 -6.983,20.898 -6.983,23.642c0,3.142 4.639,4.439 4.988,2.244c0.349,-1.995 1.197,-6.035 2.593,-10.923c7.682,-1.047 15.313,-5.536 15.313,-13.018Z" style="fill:#fff;fill-rule:nonzero;"/><path d="M228.971,33.934c-0.249,-0.499 -0.848,-0.549 -1.147,-0.1c-1.097,1.746 -3.391,5.187 -4.688,5.187c-2.793,0 2.793,-13.117 3.242,-14.314c0.648,-1.696 -2.045,-3.143 -3.841,-2.095c-1.546,0.848 -2.843,1.396 -3.89,1.496c1.247,-3.691 1.945,-5.487 1.945,-7.631c0,-1.547 -0.698,-2.295 -1.646,-2.295c-1.796,0 -4.539,3.442 -4.539,7.183c0,1.097 0.399,2.843 1.447,4.04c-1.098,3.791 -6.409,18.959 -11.086,11.912c-1.838,0.693 0.115,7.49 5.475,5.132c3.248,-1.429 6.01,-10.809 7.556,-15.847c0.349,0.1 0.548,0.1 0.947,0.1c0.649,0 1.148,-0.05 1.497,-0.2c-1.646,4.04 -3.691,10.624 -3.691,14.614c0,2.195 0.748,3.591 2.494,3.591c4.09,0 8.878,-8.179 9.876,-10.025c0.149,-0.249 0.149,-0.549 0.049,-0.748Z" style="fill:#fff;fill-rule:nonzero;"/><path d="M231.066,23.609c-1.496,2.694 -5.037,12.27 -5.037,17.507c0,2.195 0.748,3.591 2.493,3.591c4.14,0 8.879,-8.179 9.876,-10.025c0.15,-0.249 0.15,-0.549 0.05,-0.748c-0.249,-0.499 -0.848,-0.549 -1.147,-0.1c-1.097,1.746 -3.392,5.187 -4.689,5.187c-2.793,0 2.794,-13.117 3.243,-14.314c0.798,-2.045 -3.292,-3.741 -4.789,-1.098Zm8.43,-7.681c0.897,-2.594 0.249,-4.639 -1.447,-4.639c-1.696,0 -3.84,2.045 -4.688,4.639c-0.898,2.544 -0.3,4.639 1.396,4.639c1.746,0 3.841,-2.095 4.739,-4.639Z" style="fill:#fff;fill-rule:nonzero;"/><path d="M258.1,27.998c-0.2,-0.498 -0.698,-0.598 -1.047,-0.349c-1.896,1.397 -3.592,2.494 -4.938,3.093c1.047,-2.843 1.646,-5.636 1.646,-7.632c0,-1.147 -0.699,-1.845 -1.646,-1.845c-3.392,0 -4.838,5.935 -4.838,8.729c0,0.798 0.149,1.446 0.349,1.945c-1.995,4.688 -4.34,8.579 -5.786,8.579c-1.546,0 0.199,-7.931 2.943,-15.811c0.698,-2.045 -4.489,-3.941 -5.487,-1.098c-1.097,3.192 -3.292,9.427 -3.292,14.814c0,4.339 2.095,6.284 4.888,6.284c3.891,0 7.881,-5.686 10.325,-11.621c2.294,-0.599 5.038,-2.394 6.683,-4.04c0.25,-0.25 0.399,-0.698 0.2,-1.048Z" style="fill:#fff;fill-rule:nonzero;"/><path d="M272.614,33.934c-0.249,-0.499 -0.897,-0.649 -1.147,-0.15c-1.097,2.045 -5.287,7.432 -9.477,7.432c-1.945,0 -3.042,-1.746 -3.042,-4.19c0,-0.498 0.05,-0.997 0.1,-1.496c5.237,1.796 11.023,-2.793 11.023,-8.529c0,-3.492 -2.744,-5.736 -5.337,-5.736c-5.537,0 -11.273,7.332 -11.273,15.861c0,5.137 3.392,7.581 7.083,7.581c6.135,0 10.474,-7.381 12.021,-9.975c0.099,-0.2 0.149,-0.599 0.049,-0.798Zm-7.781,-9.227c0.549,0 0.948,0.548 0.948,1.197c0,3.341 -3.641,7.681 -6.334,7.282c1.147,-4.539 3.94,-8.479 5.386,-8.479Zm-0.049,-12.221c-0.649,2.844 -2.095,5.038 -3.292,5.786c-0.649,0.349 1.097,1.946 2.045,1.596c1.496,-0.498 4.289,-3.84 4.289,-4.888c0,-1.795 -2.743,-3.84 -3.042,-2.494Z" style="fill:#fff;fill-rule:nonzero;"/><path d="M289.373,33.934c-0.249,-0.499 -0.897,-0.649 -1.147,-0.15c-1.097,2.045 -5.287,7.432 -9.477,7.432c-1.945,0 -3.042,-1.746 -3.042,-4.19c0,-0.498 0.05,-0.997 0.1,-1.496c5.237,1.796 11.023,-2.793 11.023,-8.529c0,-3.492 -2.744,-5.736 -5.337,-5.736c-5.537,0 -11.273,7.332 -11.273,15.861c0,5.137 3.392,7.581 7.083,7.581c6.135,0 10.474,-7.381 12.02,-9.975c0.1,-0.2 0.15,-0.599 0.05,-0.798Zm-7.781,-9.227c0.549,0 0.948,0.548 0.948,1.197c0,3.341 -3.641,7.681 -6.334,7.282c1.147,-4.539 3.94,-8.479 5.386,-8.479Z" style="fill:#fff;fill-rule:nonzero;"/><path d="M290.072,44.707c5.572,-0.194 6.439,-4.16 6.833,-5.735c0.199,-0.798 0.349,-1.746 0.349,-2.794c0,-3.94 -0.848,-6.783 -1.297,-9.526c2.993,-3.841 5.337,-7.731 3.242,-9.278c-2.544,-1.795 -7.332,2.644 -7.432,7.931c-1.097,3.841 -2.693,6.983 -4.04,9.377c-0.498,0.798 0.549,1.846 1.098,0.948c0.548,-0.898 1.646,-2.843 2.893,-5.337c0,1.995 0,4.04 0,6.933c0,1.546 -0.749,4.489 -2.494,4.489c-0.998,0 -1.646,-0.998 -2.095,-1.945c-0.349,-0.599 -1.945,1.346 -1.596,1.945c0.698,1.297 1.895,2.992 4.04,2.992c0.149,0 0.299,0.007 0.499,0Z" style="fill:#fff;fill-rule:nonzero;"/></g><g><path d="M55.364,14.159c0,-7.639 -6.202,-13.841 -13.841,-13.841l-27.682,0c-7.639,0 -13.841,6.202 -13.841,13.841l0,27.682c0,7.639 6.202,13.841 13.841,13.841l27.682,0c7.639,0 13.841,-6.202 13.841,-13.841l0,-27.682Z" style="fill:url(#_Linear1);"/><path d="M23.152,23.056c-0.278,2.534 3.474,2.517 4.326,0.163c1.962,-5.429 2.228,-11.971 -5.908,-11.073c-6.068,0.67 -14.525,13.747 -13.543,24.433c0.593,6.448 4.821,8.475 8.367,8.149c5.712,-0.525 8.892,-6.345 9.429,-10.111c0.445,-2.735 -2.618,-4.218 -3.014,-2.463c-1.192,5.219 -4.031,9.196 -6.196,9.395c-1.658,0.153 -2.874,-1.454 -3.192,-4.908c-0.894,-9.719 6.041,-21.179 8.575,-21.412c1.52,-0.14 1.537,3.89 1.156,7.827Z" style="fill:#fff;fill-rule:nonzero;"/><path d="M47.94,18.441c-0.462,-5.02 -7.974,-7.611 -13.384,-6.011c-4.735,1.4 -0.758,3.052 1.825,2.746c2.848,-0.337 5.408,0.022 5.705,3.246c0.449,4.883 -3.064,9.107 -6.71,10.883c0.713,-3.364 1.58,-7.067 2.723,-10.795c0.568,-1.91 -4.153,-3.241 -5.017,-0.514c-3.022,9.568 -4.711,20.905 -4.478,23.438c0.266,2.902 4.66,3.706 4.796,1.65c0.153,-1.873 0.631,-6.688 1.506,-11.321c7.004,-1.619 13.67,-6.413 13.034,-13.322Z" style="fill:#fff;fill-rule:nonzero;"/></g></g><defs><linearGradient id="_Linear1" x1="0" y1="0" x2="1" y2="0" gradientUnits="userSpaceOnUse" gradientTransform="matrix(0.244541,49.0302,-49.0302,0.244541,27.3753,-0.0521006)"><stop offset="0%" style="stop-color:#f94c4c;stop-opacity:1"/><stop offset="100%" style="stop-color:#e20069;stop-opacity:1"/></linearGradient></defs></svg>